<?xml version="1.0" encoding="utf-8" standalone="no"?>
<!DOCTYPE svg PUBLIC "-//W3C//DTD SVG 1.1//EN"
  "http://www.w3.org/Graphics/SVG/1.1/DTD/svg11.dtd">
<svg xmlns:xlink="http://www.w3.org/1999/xlink" width="352.959375pt" height="353.44375pt" viewBox="0 0 352.959375 353.44375" xmlns="http://www.w3.org/2000/svg" version="1.1">
 <metadata>
  <rdf:RDF xmlns:dc="http://purl.org/dc/elements/1.1/" xmlns:cc="http://creativecommons.org/ns#" xmlns:rdf="http://www.w3.org/1999/02/22-rdf-syntax-ns#">
   <cc:Work>
    <dc:type rdf:resource="http://purl.org/dc/dcmitype/StillImage"/>
    <dc:date>2023-02-16T15:23:08.885200</dc:date>
    <dc:format>image/svg+xml</dc:format>
    <dc:creator>
     <cc:Agent>
      <dc:title>Matplotlib v3.7.0, https://matplotlib.org/</dc:title>
     </cc:Agent>
    </dc:creator>
   </cc:Work>
  </rdf:RDF>
 </metadata>
 <defs>
  <style type="text/css">*{stroke-linejoin: round; stroke-linecap: butt}</style>
 </defs>
 <g id="figure_1">
  <g id="patch_1">
   <path d="M 0 353.44375 
L 352.959375 353.44375 
L 352.959375 0 
L 0 0 
z
" style="fill: #ffffff"/>
  </g>
  <g id="axes_1">
   <g id="patch_2">
    <path d="M 41.421875 316.6 
L 345.759375 316.6 
L 345.759375 7.2 
L 41.421875 7.2 
z
" style="fill: #ececef"/>
   </g>
   <g id="patch_3">
    <path d="M 55.255398 316.6 
L 69.08892 316.6 
L 69.08892 309.233333 
L 55.255398 309.233333 
z
" clip-path="url(#pb78f7c94ec)" style="fill: #c5c5c5; fill-opacity: 0.5; stroke: #000000; stroke-width: 1.5; stroke-linejoin: miter"/>
   </g>
   <g id="patch_4">
    <path d="M 69.08892 316.6 
L 82.922443 316.6 
L 82.922443 316.6 
L 69.08892 316.6 
z
" clip-path="url(#pb78f7c94ec)" style="fill: #c5c5c5; fill-opacity: 0.5; stroke: #000000; stroke-width: 1.5; stroke-linejoin: miter"/>
   </g>
   <g id="patch_5">
    <path d="M 82.922443 316.6 
L 96.755966 316.6 
L 96.755966 301.866667 
L 82.922443 301.866667 
z
" clip-path="url(#pb78f7c94ec)" style="fill: #c5c5c5; fill-opacity: 0.5; stroke: #000000; stroke-width: 1.5; stroke-linejoin: miter"/>
   </g>
   <g id="patch_6">
    <path d="M 96.755966 316.6 
L 110.589489 316.6 
L 110.589489 294.5 
L 96.755966 294.5 
z
" clip-path="url(#pb78f7c94ec)" style="fill: #c5c5c5; fill-opacity: 0.5; stroke: #000000; stroke-width: 1.5; stroke-linejoin: miter"/>
   </g>
   <g id="patch_7">
    <path d="M 110.589489 316.6 
L 124.423011 316.6 
L 124.423011 294.5 
L 110.589489 294.5 
z
" clip-path="url(#pb78f7c94ec)" style="fill: #c5c5c5; fill-opacity: 0.5; stroke: #000000; stroke-width: 1.5; stroke-linejoin: miter"/>
   </g>
   <g id="patch_8">
    <path d="M 124.423011 316.6 
L 138.256534 316.6 
L 138.256534 272.4 
L 124.423011 272.4 
z
" clip-path="url(#pb78f7c94ec)" style="fill: #c5c5c5; fill-opacity: 0.5; stroke: #000000; stroke-width: 1.5; stroke-linejoin: miter"/>
   </g>
   <g id="patch_9">
    <path d="M 138.256534 316.6 
L 152.090057 316.6 
L 152.090057 220.833333 
L 138.256534 220.833333 
z
" clip-path="url(#pb78f7c94ec)" style="fill: #c5c5c5; fill-opacity: 0.5; stroke: #000000; stroke-width: 1.5; stroke-linejoin: miter"/>
   </g>
   <g id="patch_10">
    <path d="M 152.090057 316.6 
L 165.92358 316.6 
L 165.92358 228.2 
L 152.090057 228.2 
z
" clip-path="url(#pb78f7c94ec)" style="fill: #c5c5c5; fill-opacity: 0.5; stroke: #000000; stroke-width: 1.5; stroke-linejoin: miter"/>
   </g>
   <g id="patch_11">
    <path d="M 165.92358 316.6 
L 179.757102 316.6 
L 179.757102 184 
L 165.92358 184 
z
" clip-path="url(#pb78f7c94ec)" style="fill: #c5c5c5; fill-opacity: 0.5; stroke: #000000; stroke-width: 1.5; stroke-linejoin: miter"/>
   </g>
   <g id="patch_12">
    <path d="M 179.757102 316.6 
L 193.590625 316.6 
L 193.590625 161.9 
L 179.757102 161.9 
z
" clip-path="url(#pb78f7c94ec)" style="fill: #c5c5c5; fill-opacity: 0.5; stroke: #000000; stroke-width: 1.5; stroke-linejoin: miter"/>
   </g>
   <g id="patch_13">
    <path d="M 193.590625 316.6 
L 207.424148 316.6 
L 207.424148 88.233333 
L 193.590625 88.233333 
z
" clip-path="url(#pb78f7c94ec)" style="fill: #c5c5c5; fill-opacity: 0.5; stroke: #000000; stroke-width: 1.5; stroke-linejoin: miter"/>
   </g>
   <g id="patch_14">
    <path d="M 207.424148 316.6 
L 221.25767 316.6 
L 221.25767 58.766667 
L 207.424148 58.766667 
z
" clip-path="url(#pb78f7c94ec)" style="fill: #c5c5c5; fill-opacity: 0.5; stroke: #000000; stroke-width: 1.5; stroke-linejoin: miter"/>
   </g>
   <g id="patch_15">
    <path d="M 221.25767 316.6 
L 235.091193 316.6 
L 235.091193 21.933333 
L 221.25767 21.933333 
z
" clip-path="url(#pb78f7c94ec)" style="fill: #c5c5c5; fill-opacity: 0.5; stroke: #000000; stroke-width: 1.5; stroke-linejoin: miter"/>
   </g>
   <g id="patch_16">
    <path d="M 235.091193 316.6 
L 248.924716 316.6 
L 248.924716 117.7 
L 235.091193 117.7 
z
" clip-path="url(#pb78f7c94ec)" style="fill: #c5c5c5; fill-opacity: 0.5; stroke: #000000; stroke-width: 1.5; stroke-linejoin: miter"/>
   </g>
   <g id="patch_17">
    <path d="M 248.924716 316.6 
L 262.758239 316.6 
L 262.758239 176.633333 
L 248.924716 176.633333 
z
" clip-path="url(#pb78f7c94ec)" style="fill: #c5c5c5; fill-opacity: 0.5; stroke: #000000; stroke-width: 1.5; stroke-linejoin: miter"/>
   </g>
   <g id="patch_18">
    <path d="M 262.758239 316.6 
L 276.591761 316.6 
L 276.591761 220.833333 
L 262.758239 220.833333 
z
" clip-path="url(#pb78f7c94ec)" style="fill: #c5c5c5; fill-opacity: 0.5; stroke: #000000; stroke-width: 1.5; stroke-linejoin: miter"/>
   </g>
   <g id="patch_19">
    <path d="M 276.591761 316.6 
L 290.425284 316.6 
L 290.425284 272.4 
L 276.591761 272.4 
z
" clip-path="url(#pb78f7c94ec)" style="fill: #c5c5c5; fill-opacity: 0.5; stroke: #000000; stroke-width: 1.5; stroke-linejoin: miter"/>
   </g>
   <g id="patch_20">
    <path d="M 290.425284 316.6 
L 304.258807 316.6 
L 304.258807 301.866667 
L 290.425284 301.866667 
z
" clip-path="url(#pb78f7c94ec)" style="fill: #c5c5c5; fill-opacity: 0.5; stroke: #000000; stroke-width: 1.5; stroke-linejoin: miter"/>
   </g>
   <g id="patch_21">
    <path d="M 304.258807 316.6 
L 318.09233 316.6 
L 318.09233 294.5 
L 304.258807 294.5 
z
" clip-path="url(#pb78f7c94ec)" style="fill: #c5c5c5; fill-opacity: 0.5; stroke: #000000; stroke-width: 1.5; stroke-linejoin: miter"/>
   </g>
   <g id="patch_22">
    <path d="M 318.09233 316.6 
L 331.925852 316.6 
L 331.925852 309.233333 
L 318.09233 309.233333 
z
" clip-path="url(#pb78f7c94ec)" style="fill: #c5c5c5; fill-opacity: 0.5; stroke: #000000; stroke-width: 1.5; stroke-linejoin: miter"/>
   </g>
   <g id="matplotlib.axis_1">
    <g id="xtick_1">
     <g id="line2d_1">
      <path d="M 67.977606 316.6 
L 67.977606 7.2 
" clip-path="url(#pb78f7c94ec)" style="fill: none; stroke: #f7f7f8; stroke-width: 0.8; stroke-linecap: square"/>
     </g>
     <g id="line2d_2">
      <defs>
       <path id="md66bab13a2" d="M 0 0 
L 0 3.5 
" style="stroke: #8a8a8c; stroke-width: 0.8"/>
      </defs>
      <g>
       <use xlink:href="#md66bab13a2" x="67.977606" y="316.6" style="fill: #8a8a8c; stroke: #8a8a8c; stroke-width: 0.8"/>
      </g>
     </g>
     <g id="text_1">
      <!-- −0.4 -->
      <g style="fill: #8a8a8c" transform="translate(58.107293 330.846875) scale(0.1 -0.1)">
       <defs>
        <path id="LiberationSans-2212" d="M 316 1900 
L 316 2356 
L 3425 2356 
L 3425 1900 
L 316 1900 
z
" transform="scale(0.015625)"/>
        <path id="LiberationSans-30" d="M 3309 2203 
Q 3309 1569 3189 1136 
Q 3069 703 2861 436 
Q 2653 169 2372 53 
Q 2091 -63 1772 -63 
Q 1450 -63 1172 53 
Q 894 169 689 434 
Q 484 700 367 1133 
Q 250 1566 250 2203 
Q 250 2869 367 3305 
Q 484 3741 690 4000 
Q 897 4259 1178 4364 
Q 1459 4469 1791 4469 
Q 2106 4469 2382 4364 
Q 2659 4259 2865 4000 
Q 3072 3741 3190 3305 
Q 3309 2869 3309 2203 
z
M 2738 2203 
Q 2738 2728 2675 3076 
Q 2613 3425 2491 3633 
Q 2369 3841 2192 3927 
Q 2016 4013 1791 4013 
Q 1553 4013 1372 3925 
Q 1191 3838 1067 3630 
Q 944 3422 881 3073 
Q 819 2725 819 2203 
Q 819 1697 883 1350 
Q 947 1003 1070 792 
Q 1194 581 1372 489 
Q 1550 397 1778 397 
Q 2000 397 2178 489 
Q 2356 581 2479 792 
Q 2603 1003 2670 1350 
Q 2738 1697 2738 2203 
z
" transform="scale(0.015625)"/>
        <path id="LiberationSans-2e" d="M 584 0 
L 584 684 
L 1194 684 
L 1194 0 
L 584 0 
z
" transform="scale(0.015625)"/>
        <path id="LiberationSans-34" d="M 2753 997 
L 2753 0 
L 2222 0 
L 2222 997 
L 147 997 
L 147 1434 
L 2163 4403 
L 2753 4403 
L 2753 1441 
L 3372 1441 
L 3372 997 
L 2753 997 
z
M 2222 3769 
Q 2216 3753 2191 3708 
Q 2166 3663 2134 3606 
Q 2103 3550 2070 3492 
Q 2038 3434 2013 3397 
L 884 1734 
Q 869 1709 839 1668 
Q 809 1628 778 1586 
Q 747 1544 715 1503 
Q 684 1463 666 1441 
L 2222 1441 
L 2222 3769 
z
" transform="scale(0.015625)"/>
       </defs>
       <use xlink:href="#LiberationSans-2212"/>
       <use xlink:href="#LiberationSans-30" x="58.398438"/>
       <use xlink:href="#LiberationSans-2e" x="114.013672"/>
       <use xlink:href="#LiberationSans-34" x="141.796875"/>
      </g>
     </g>
    </g>
    <g id="xtick_2">
     <g id="line2d_3">
      <path d="M 105.581191 316.6 
L 105.581191 7.2 
" clip-path="url(#pb78f7c94ec)" style="fill: none; stroke: #f7f7f8; stroke-width: 0.8; stroke-linecap: square"/>
     </g>
     <g id="line2d_4">
      <g>
       <use xlink:href="#md66bab13a2" x="105.581191" y="316.6" style="fill: #8a8a8c; stroke: #8a8a8c; stroke-width: 0.8"/>
      </g>
     </g>
     <g id="text_2">
      <!-- −0.3 -->
      <g style="fill: #8a8a8c" transform="translate(95.710878 330.846875) scale(0.1 -0.1)">
       <defs>
        <path id="LiberationSans-33" d="M 3278 1216 
Q 3278 913 3179 675 
Q 3081 438 2892 273 
Q 2703 109 2423 23 
Q 2144 -63 1784 -63 
Q 1375 -63 1095 39 
Q 816 141 634 308 
Q 453 475 362 689 
Q 272 903 244 1131 
L 825 1184 
Q 850 1009 917 865 
Q 984 722 1100 619 
Q 1216 516 1384 459 
Q 1553 403 1784 403 
Q 2209 403 2451 612 
Q 2694 822 2694 1234 
Q 2694 1478 2586 1626 
Q 2478 1775 2317 1858 
Q 2156 1941 1967 1969 
Q 1778 1997 1619 1997 
L 1300 1997 
L 1300 2484 
L 1606 2484 
Q 1766 2484 1937 2517 
Q 2109 2550 2251 2636 
Q 2394 2722 2486 2869 
Q 2578 3016 2578 3244 
Q 2578 3597 2370 3801 
Q 2163 4006 1753 4006 
Q 1381 4006 1151 3815 
Q 922 3625 884 3278 
L 319 3322 
Q 353 3613 478 3828 
Q 603 4044 795 4186 
Q 988 4328 1234 4398 
Q 1481 4469 1759 4469 
Q 2128 4469 2393 4376 
Q 2659 4284 2828 4126 
Q 2997 3969 3076 3756 
Q 3156 3544 3156 3303 
Q 3156 3109 3103 2940 
Q 3050 2772 2937 2637 
Q 2825 2503 2651 2406 
Q 2478 2309 2234 2259 
L 2234 2247 
Q 2500 2219 2697 2126 
Q 2894 2034 3022 1896 
Q 3150 1759 3214 1584 
Q 3278 1409 3278 1216 
z
" transform="scale(0.015625)"/>
       </defs>
       <use xlink:href="#LiberationSans-2212"/>
       <use xlink:href="#LiberationSans-30" x="58.398438"/>
       <use xlink:href="#LiberationSans-2e" x="114.013672"/>
       <use xlink:href="#LiberationSans-33" x="141.796875"/>
      </g>
     </g>
    </g>
    <g id="xtick_3">
     <g id="line2d_5">
      <path d="M 143.184776 316.6 
L 143.184776 7.2 
" clip-path="url(#pb78f7c94ec)" style="fill: none; stroke: #f7f7f8; stroke-width: 0.8; stroke-linecap: square"/>
     </g>
     <g id="line2d_6">
      <g>
       <use xlink:href="#md66bab13a2" x="143.184776" y="316.6" style="fill: #8a8a8c; stroke: #8a8a8c; stroke-width: 0.8"/>
      </g>
     </g>
     <g id="text_3">
      <!-- −0.2 -->
      <g style="fill: #8a8a8c" transform="translate(133.314463 330.846875) scale(0.1 -0.1)">
       <defs>
        <path id="LiberationSans-32" d="M 322 0 
L 322 397 
Q 481 763 711 1042 
Q 941 1322 1194 1548 
Q 1447 1775 1695 1969 
Q 1944 2163 2144 2356 
Q 2344 2550 2467 2762 
Q 2591 2975 2591 3244 
Q 2591 3431 2534 3573 
Q 2478 3716 2372 3812 
Q 2266 3909 2117 3957 
Q 1969 4006 1788 4006 
Q 1619 4006 1470 3959 
Q 1322 3913 1206 3819 
Q 1091 3725 1017 3586 
Q 944 3447 922 3263 
L 347 3316 
Q 375 3553 478 3762 
Q 581 3972 762 4130 
Q 944 4288 1198 4378 
Q 1453 4469 1788 4469 
Q 2116 4469 2372 4391 
Q 2628 4313 2804 4159 
Q 2981 4006 3075 3781 
Q 3169 3556 3169 3263 
Q 3169 3041 3089 2841 
Q 3009 2641 2876 2459 
Q 2744 2278 2569 2109 
Q 2394 1941 2203 1780 
Q 2013 1619 1819 1461 
Q 1625 1303 1454 1143 
Q 1284 984 1150 820 
Q 1016 656 941 478 
L 3238 478 
L 3238 0 
L 322 0 
z
" transform="scale(0.015625)"/>
       </defs>
       <use xlink:href="#LiberationSans-2212"/>
       <use xlink:href="#LiberationSans-30" x="58.398438"/>
       <use xlink:href="#LiberationSans-2e" x="114.013672"/>
       <use xlink:href="#LiberationSans-32" x="141.796875"/>
      </g>
     </g>
    </g>
    <g id="xtick_4">
     <g id="line2d_7">
      <path d="M 180.788361 316.6 
L 180.788361 7.2 
" clip-path="url(#pb78f7c94ec)" style="fill: none; stroke: #f7f7f8; stroke-width: 0.8; stroke-linecap: square"/>
     </g>
     <g id="line2d_8">
      <g>
       <use xlink:href="#md66bab13a2" x="180.788361" y="316.6" style="fill: #8a8a8c; stroke: #8a8a8c; stroke-width: 0.8"/>
      </g>
     </g>
     <g id="text_4">
      <!-- −0.1 -->
      <g style="fill: #8a8a8c" transform="translate(170.918048 330.846875) scale(0.1 -0.1)">
       <defs>
        <path id="LiberationSans-31" d="M 488 0 
L 488 478 
L 1609 478 
L 1609 3866 
L 616 3156 
L 616 3688 
L 1656 4403 
L 2175 4403 
L 2175 478 
L 3247 478 
L 3247 0 
L 488 0 
z
" transform="scale(0.015625)"/>
       </defs>
       <use xlink:href="#LiberationSans-2212"/>
       <use xlink:href="#LiberationSans-30" x="58.398438"/>
       <use xlink:href="#LiberationSans-2e" x="114.013672"/>
       <use xlink:href="#LiberationSans-31" x="141.796875"/>
      </g>
     </g>
    </g>
    <g id="xtick_5">
     <g id="line2d_9">
      <path d="M 218.391946 316.6 
L 218.391946 7.2 
" clip-path="url(#pb78f7c94ec)" style="fill: none; stroke: #f7f7f8; stroke-width: 0.8; stroke-linecap: square"/>
     </g>
     <g id="line2d_10">
      <g>
       <use xlink:href="#md66bab13a2" x="218.391946" y="316.6" style="fill: #8a8a8c; stroke: #8a8a8c; stroke-width: 0.8"/>
      </g>
     </g>
     <g id="text_5">
      <!-- 0.0 -->
      <g style="fill: #8a8a8c" transform="translate(211.441946 330.846875) scale(0.1 -0.1)">
       <use xlink:href="#LiberationSans-30"/>
       <use xlink:href="#LiberationSans-2e" x="55.615234"/>
       <use xlink:href="#LiberationSans-30" x="83.398438"/>
      </g>
     </g>
    </g>
    <g id="xtick_6">
     <g id="line2d_11">
      <path d="M 255.995531 316.6 
L 255.995531 7.2 
" clip-path="url(#pb78f7c94ec)" style="fill: none; stroke: #f7f7f8; stroke-width: 0.8; stroke-linecap: square"/>
     </g>
     <g id="line2d_12">
      <g>
       <use xlink:href="#md66bab13a2" x="255.995531" y="316.6" style="fill: #8a8a8c; stroke: #8a8a8c; stroke-width: 0.8"/>
      </g>
     </g>
     <g id="text_6">
      <!-- 0.1 -->
      <g style="fill: #8a8a8c" transform="translate(249.045531 330.846875) scale(0.1 -0.1)">
       <use xlink:href="#LiberationSans-30"/>
       <use xlink:href="#LiberationSans-2e" x="55.615234"/>
       <use xlink:href="#LiberationSans-31" x="83.398438"/>
      </g>
     </g>
    </g>
    <g id="xtick_7">
     <g id="line2d_13">
      <path d="M 293.599116 316.6 
L 293.599116 7.2 
" clip-path="url(#pb78f7c94ec)" style="fill: none; stroke: #f7f7f8; stroke-width: 0.8; stroke-linecap: square"/>
     </g>
     <g id="line2d_14">
      <g>
       <use xlink:href="#md66bab13a2" x="293.599116" y="316.6" style="fill: #8a8a8c; stroke: #8a8a8c; stroke-width: 0.8"/>
      </g>
     </g>
     <g id="text_7">
      <!-- 0.2 -->
      <g style="fill: #8a8a8c" transform="translate(286.649116 330.846875) scale(0.1 -0.1)">
       <use xlink:href="#LiberationSans-30"/>
       <use xlink:href="#LiberationSans-2e" x="55.615234"/>
       <use xlink:href="#LiberationSans-32" x="83.398438"/>
      </g>
     </g>
    </g>
    <g id="xtick_8">
     <g id="line2d_15">
      <path d="M 331.202701 316.6 
L 331.202701 7.2 
" clip-path="url(#pb78f7c94ec)" style="fill: none; stroke: #f7f7f8; stroke-width: 0.8; stroke-linecap: square"/>
     </g>
     <g id="line2d_16">
      <g>
       <use xlink:href="#md66bab13a2" x="331.202701" y="316.6" style="fill: #8a8a8c; stroke: #8a8a8c; stroke-width: 0.8"/>
      </g>
     </g>
     <g id="text_8">
      <!-- 0.3 -->
      <g style="fill: #8a8a8c" transform="translate(324.252701 330.846875) scale(0.1 -0.1)">
       <use xlink:href="#LiberationSans-30"/>
       <use xlink:href="#LiberationSans-2e" x="55.615234"/>
       <use xlink:href="#LiberationSans-33" x="83.398438"/>
      </g>
     </g>
    </g>
    <g id="text_9">
     <!-- scaled -->
     <g style="fill: #8a8a8c" transform="translate(179.138281 344.16875) scale(0.1 -0.1)">
      <defs>
       <path id="LiberationSans-73" d="M 2969 934 
Q 2969 697 2876 511 
Q 2784 325 2609 198 
Q 2434 72 2179 4 
Q 1925 -63 1597 -63 
Q 1303 -63 1067 -17 
Q 831 28 653 128 
Q 475 228 354 392 
Q 234 556 178 794 
L 675 891 
Q 747 619 972 492 
Q 1197 366 1597 366 
Q 1778 366 1929 391 
Q 2081 416 2190 477 
Q 2300 538 2361 639 
Q 2422 741 2422 891 
Q 2422 1044 2350 1142 
Q 2278 1241 2150 1306 
Q 2022 1372 1839 1420 
Q 1656 1469 1438 1528 
Q 1234 1581 1034 1647 
Q 834 1713 673 1820 
Q 513 1928 413 2087 
Q 313 2247 313 2488 
Q 313 2950 642 3192 
Q 972 3434 1603 3434 
Q 2163 3434 2492 3237 
Q 2822 3041 2909 2606 
L 2403 2544 
Q 2375 2675 2300 2764 
Q 2225 2853 2119 2908 
Q 2013 2963 1880 2986 
Q 1747 3009 1603 3009 
Q 1222 3009 1040 2893 
Q 859 2778 859 2544 
Q 859 2406 926 2317 
Q 994 2228 1114 2167 
Q 1234 2106 1403 2061 
Q 1572 2016 1775 1966 
Q 1909 1931 2050 1892 
Q 2191 1853 2323 1798 
Q 2456 1744 2573 1670 
Q 2691 1597 2778 1494 
Q 2866 1391 2917 1253 
Q 2969 1116 2969 934 
z
" transform="scale(0.015625)"/>
       <path id="LiberationSans-63" d="M 859 1706 
Q 859 1416 901 1172 
Q 944 928 1044 751 
Q 1144 575 1308 478 
Q 1472 381 1713 381 
Q 2013 381 2214 543 
Q 2416 706 2463 1044 
L 3031 1006 
Q 3003 797 2909 603 
Q 2816 409 2655 262 
Q 2494 116 2262 26 
Q 2031 -63 1728 -63 
Q 1331 -63 1053 71 
Q 775 206 601 442 
Q 428 678 350 998 
Q 272 1319 272 1694 
Q 272 2034 328 2295 
Q 384 2556 486 2751 
Q 588 2947 725 3080 
Q 863 3213 1023 3292 
Q 1184 3372 1362 3408 
Q 1541 3444 1722 3444 
Q 2006 3444 2228 3366 
Q 2450 3288 2611 3152 
Q 2772 3016 2872 2831 
Q 2972 2647 3013 2434 
L 2434 2391 
Q 2391 2672 2212 2837 
Q 2034 3003 1706 3003 
Q 1466 3003 1305 2923 
Q 1144 2844 1044 2683 
Q 944 2522 901 2278 
Q 859 2034 859 1706 
z
" transform="scale(0.015625)"/>
       <path id="LiberationSans-61" d="M 1294 -63 
Q 784 -63 528 206 
Q 272 475 272 944 
Q 272 1278 398 1492 
Q 525 1706 729 1828 
Q 934 1950 1196 1997 
Q 1459 2044 1731 2050 
L 2491 2063 
L 2491 2247 
Q 2491 2456 2447 2603 
Q 2403 2750 2312 2840 
Q 2222 2931 2086 2973 
Q 1950 3016 1766 3016 
Q 1603 3016 1472 2992 
Q 1341 2969 1244 2908 
Q 1147 2847 1087 2742 
Q 1028 2638 1009 2478 
L 422 2531 
Q 453 2731 540 2898 
Q 628 3066 789 3187 
Q 950 3309 1192 3376 
Q 1434 3444 1778 3444 
Q 2416 3444 2737 3151 
Q 3059 2859 3059 2306 
L 3059 850 
Q 3059 600 3125 473 
Q 3191 347 3375 347 
Q 3422 347 3469 353 
Q 3516 359 3559 369 
L 3559 19 
Q 3453 -6 3348 -18 
Q 3244 -31 3125 -31 
Q 2966 -31 2852 11 
Q 2738 53 2666 139 
Q 2594 225 2556 351 
Q 2519 478 2509 647 
L 2491 647 
Q 2400 484 2292 353 
Q 2184 222 2040 130 
Q 1897 38 1714 -12 
Q 1531 -63 1294 -63 
z
M 1422 359 
Q 1691 359 1892 457 
Q 2094 556 2226 709 
Q 2359 863 2425 1044 
Q 2491 1225 2491 1391 
L 2491 1669 
L 1875 1656 
Q 1669 1653 1483 1626 
Q 1297 1600 1156 1522 
Q 1016 1444 933 1303 
Q 850 1163 850 934 
Q 850 659 998 509 
Q 1147 359 1422 359 
z
" transform="scale(0.015625)"/>
       <path id="LiberationSans-6c" d="M 431 0 
L 431 4638 
L 994 4638 
L 994 0 
L 431 0 
z
" transform="scale(0.015625)"/>
       <path id="LiberationSans-65" d="M 863 1572 
Q 863 1306 917 1082 
Q 972 859 1086 698 
Q 1200 538 1378 448 
Q 1556 359 1806 359 
Q 2172 359 2392 506 
Q 2613 653 2691 878 
L 3184 738 
Q 3131 597 3036 455 
Q 2941 313 2781 198 
Q 2622 84 2383 10 
Q 2144 -63 1806 -63 
Q 1056 -63 664 384 
Q 272 831 272 1713 
Q 272 2188 390 2517 
Q 509 2847 715 3053 
Q 922 3259 1197 3351 
Q 1472 3444 1784 3444 
Q 2209 3444 2495 3306 
Q 2781 3169 2954 2926 
Q 3128 2684 3201 2356 
Q 3275 2028 3275 1647 
L 3275 1572 
L 863 1572 
z
M 2694 2003 
Q 2647 2538 2422 2783 
Q 2197 3028 1775 3028 
Q 1634 3028 1479 2983 
Q 1325 2938 1194 2822 
Q 1063 2706 972 2507 
Q 881 2309 869 2003 
L 2694 2003 
z
" transform="scale(0.015625)"/>
       <path id="LiberationSans-64" d="M 2566 544 
Q 2409 219 2151 78 
Q 1894 -63 1513 -63 
Q 872 -63 570 368 
Q 269 800 269 1675 
Q 269 3444 1513 3444 
Q 1897 3444 2153 3303 
Q 2409 3163 2566 2856 
L 2572 2856 
Q 2572 2888 2570 2955 
Q 2569 3022 2567 3095 
Q 2566 3169 2566 3234 
Q 2566 3300 2566 3328 
L 2566 4638 
L 3128 4638 
L 3128 697 
Q 3128 575 3129 462 
Q 3131 350 3134 256 
Q 3138 163 3141 95 
Q 3144 28 3147 0 
L 2609 0 
Q 2603 31 2598 89 
Q 2594 147 2589 222 
Q 2584 297 2581 380 
Q 2578 463 2578 544 
L 2566 544 
z
M 859 1694 
Q 859 1344 903 1094 
Q 947 844 1044 683 
Q 1141 522 1291 447 
Q 1441 372 1656 372 
Q 1878 372 2048 444 
Q 2219 516 2333 677 
Q 2447 838 2506 1097 
Q 2566 1356 2566 1731 
Q 2566 2091 2506 2339 
Q 2447 2588 2331 2741 
Q 2216 2894 2048 2961 
Q 1881 3028 1663 3028 
Q 1456 3028 1306 2956 
Q 1156 2884 1056 2725 
Q 956 2566 907 2311 
Q 859 2056 859 1694 
z
" transform="scale(0.015625)"/>
      </defs>
      <use xlink:href="#LiberationSans-73"/>
      <use xlink:href="#LiberationSans-63" x="50"/>
      <use xlink:href="#LiberationSans-61" x="100"/>
      <use xlink:href="#LiberationSans-6c" x="155.615234"/>
      <use xlink:href="#LiberationSans-65" x="177.832031"/>
      <use xlink:href="#LiberationSans-64" x="233.447266"/>
     </g>
    </g>
   </g>
   <g id="matplotlib.axis_2">
    <g id="ytick_1">
     <g id="line2d_17">
      <path d="M 41.421875 316.6 
L 345.759375 316.6 
" clip-path="url(#pb78f7c94ec)" style="fill: none; stroke: #f7f7f8; stroke-width: 0.8; stroke-linecap: square"/>
     </g>
     <g id="line2d_18">
      <defs>
       <path id="m86688532ae" d="M 0 0 
L -3.5 0 
" style="stroke: #8a8a8c; stroke-width: 0.8"/>
      </defs>
      <g>
       <use xlink:href="#m86688532ae" x="41.421875" y="316.6" style="fill: #8a8a8c; stroke: #8a8a8c; stroke-width: 0.8"/>
      </g>
     </g>
     <g id="text_10">
      <!-- 0.0 -->
      <g style="fill: #8a8a8c" transform="translate(20.521875 320.223438) scale(0.1 -0.1)">
       <use xlink:href="#LiberationSans-30"/>
       <use xlink:href="#LiberationSans-2e" x="55.615234"/>
       <use xlink:href="#LiberationSans-30" x="83.398438"/>
      </g>
     </g>
    </g>
    <g id="ytick_2">
     <g id="line2d_19">
      <path d="M 41.421875 281.91158 
L 345.759375 281.91158 
" clip-path="url(#pb78f7c94ec)" style="fill: none; stroke: #f7f7f8; stroke-width: 0.8; stroke-linecap: square"/>
     </g>
     <g id="line2d_20">
      <g>
       <use xlink:href="#m86688532ae" x="41.421875" y="281.91158" style="fill: #8a8a8c; stroke: #8a8a8c; stroke-width: 0.8"/>
      </g>
     </g>
     <g id="text_11">
      <!-- 0.5 -->
      <g style="fill: #8a8a8c" transform="translate(20.521875 285.535017) scale(0.1 -0.1)">
       <defs>
        <path id="LiberationSans-35" d="M 3291 1434 
Q 3291 1103 3191 828 
Q 3091 553 2894 354 
Q 2697 156 2405 46 
Q 2113 -63 1728 -63 
Q 1381 -63 1123 18 
Q 866 100 687 242 
Q 509 384 404 575 
Q 300 766 256 984 
L 825 1050 
Q 859 925 921 808 
Q 984 691 1092 598 
Q 1200 506 1358 451 
Q 1516 397 1741 397 
Q 1959 397 2137 464 
Q 2316 531 2442 662 
Q 2569 794 2637 984 
Q 2706 1175 2706 1422 
Q 2706 1625 2640 1795 
Q 2575 1966 2453 2089 
Q 2331 2213 2154 2281 
Q 1978 2350 1753 2350 
Q 1613 2350 1494 2325 
Q 1375 2300 1273 2256 
Q 1172 2213 1089 2155 
Q 1006 2097 934 2034 
L 384 2034 
L 531 4403 
L 3034 4403 
L 3034 3925 
L 1044 3925 
L 959 2528 
Q 1109 2644 1334 2726 
Q 1559 2809 1869 2809 
Q 2197 2809 2459 2709 
Q 2722 2609 2906 2426 
Q 3091 2244 3191 1991 
Q 3291 1738 3291 1434 
z
" transform="scale(0.015625)"/>
       </defs>
       <use xlink:href="#LiberationSans-30"/>
       <use xlink:href="#LiberationSans-2e" x="55.615234"/>
       <use xlink:href="#LiberationSans-35" x="83.398438"/>
      </g>
     </g>
    </g>
    <g id="ytick_3">
     <g id="line2d_21">
      <path d="M 41.421875 247.223159 
L 345.759375 247.223159 
" clip-path="url(#pb78f7c94ec)" style="fill: none; stroke: #f7f7f8; stroke-width: 0.8; stroke-linecap: square"/>
     </g>
     <g id="line2d_22">
      <g>
       <use xlink:href="#m86688532ae" x="41.421875" y="247.223159" style="fill: #8a8a8c; stroke: #8a8a8c; stroke-width: 0.8"/>
      </g>
     </g>
     <g id="text_12">
      <!-- 1.0 -->
      <g style="fill: #8a8a8c" transform="translate(20.521875 250.846597) scale(0.1 -0.1)">
       <use xlink:href="#LiberationSans-31"/>
       <use xlink:href="#LiberationSans-2e" x="55.615234"/>
       <use xlink:href="#LiberationSans-30" x="83.398438"/>
      </g>
     </g>
    </g>
    <g id="ytick_4">
     <g id="line2d_23">
      <path d="M 41.421875 212.534739 
L 345.759375 212.534739 
" clip-path="url(#pb78f7c94ec)" style="fill: none; stroke: #f7f7f8; stroke-width: 0.8; stroke-linecap: square"/>
     </g>
     <g id="line2d_24">
      <g>
       <use xlink:href="#m86688532ae" x="41.421875" y="212.534739" style="fill: #8a8a8c; stroke: #8a8a8c; stroke-width: 0.8"/>
      </g>
     </g>
     <g id="text_13">
      <!-- 1.5 -->
      <g style="fill: #8a8a8c" transform="translate(20.521875 216.158176) scale(0.1 -0.1)">
       <use xlink:href="#LiberationSans-31"/>
       <use xlink:href="#LiberationSans-2e" x="55.615234"/>
       <use xlink:href="#LiberationSans-35" x="83.398438"/>
      </g>
     </g>
    </g>
    <g id="ytick_5">
     <g id="line2d_25">
      <path d="M 41.421875 177.846318 
L 345.759375 177.846318 
" clip-path="url(#pb78f7c94ec)" style="fill: none; stroke: #f7f7f8; stroke-width: 0.8; stroke-linecap: square"/>
     </g>
     <g id="line2d_26">
      <g>
       <use xlink:href="#m86688532ae" x="41.421875" y="177.846318" style="fill: #8a8a8c; stroke: #8a8a8c; stroke-width: 0.8"/>
      </g>
     </g>
     <g id="text_14">
      <!-- 2.0 -->
      <g style="fill: #8a8a8c" transform="translate(20.521875 181.469756) scale(0.1 -0.1)">
       <use xlink:href="#LiberationSans-32"/>
       <use xlink:href="#LiberationSans-2e" x="55.615234"/>
       <use xlink:href="#LiberationSans-30" x="83.398438"/>
      </g>
     </g>
    </g>
    <g id="ytick_6">
     <g id="line2d_27">
      <path d="M 41.421875 143.157898 
L 345.759375 143.157898 
" clip-path="url(#pb78f7c94ec)" style="fill: none; stroke: #f7f7f8; stroke-width: 0.8; stroke-linecap: square"/>
     </g>
     <g id="line2d_28">
      <g>
       <use xlink:href="#m86688532ae" x="41.421875" y="143.157898" style="fill: #8a8a8c; stroke: #8a8a8c; stroke-width: 0.8"/>
      </g>
     </g>
     <g id="text_15">
      <!-- 2.5 -->
      <g style="fill: #8a8a8c" transform="translate(20.521875 146.781335) scale(0.1 -0.1)">
       <use xlink:href="#LiberationSans-32"/>
       <use xlink:href="#LiberationSans-2e" x="55.615234"/>
       <use xlink:href="#LiberationSans-35" x="83.398438"/>
      </g>
     </g>
    </g>
    <g id="ytick_7">
     <g id="line2d_29">
      <path d="M 41.421875 108.469477 
L 345.759375 108.469477 
" clip-path="url(#pb78f7c94ec)" style="fill: none; stroke: #f7f7f8; stroke-width: 0.8; stroke-linecap: square"/>
     </g>
     <g id="line2d_30">
      <g>
       <use xlink:href="#m86688532ae" x="41.421875" y="108.469477" style="fill: #8a8a8c; stroke: #8a8a8c; stroke-width: 0.8"/>
      </g>
     </g>
     <g id="text_16">
      <!-- 3.0 -->
      <g style="fill: #8a8a8c" transform="translate(20.521875 112.092915) scale(0.1 -0.1)">
       <use xlink:href="#LiberationSans-33"/>
       <use xlink:href="#LiberationSans-2e" x="55.615234"/>
       <use xlink:href="#LiberationSans-30" x="83.398438"/>
      </g>
     </g>
    </g>
    <g id="ytick_8">
     <g id="line2d_31">
      <path d="M 41.421875 73.781057 
L 345.759375 73.781057 
" clip-path="url(#pb78f7c94ec)" style="fill: none; stroke: #f7f7f8; stroke-width: 0.8; stroke-linecap: square"/>
     </g>
     <g id="line2d_32">
      <g>
       <use xlink:href="#m86688532ae" x="41.421875" y="73.781057" style="fill: #8a8a8c; stroke: #8a8a8c; stroke-width: 0.8"/>
      </g>
     </g>
     <g id="text_17">
      <!-- 3.5 -->
      <g style="fill: #8a8a8c" transform="translate(20.521875 77.404494) scale(0.1 -0.1)">
       <use xlink:href="#LiberationSans-33"/>
       <use xlink:href="#LiberationSans-2e" x="55.615234"/>
       <use xlink:href="#LiberationSans-35" x="83.398438"/>
      </g>
     </g>
    </g>
    <g id="ytick_9">
     <g id="line2d_33">
      <path d="M 41.421875 39.092636 
L 345.759375 39.092636 
" clip-path="url(#pb78f7c94ec)" style="fill: none; stroke: #f7f7f8; stroke-width: 0.8; stroke-linecap: square"/>
     </g>
     <g id="line2d_34">
      <g>
       <use xlink:href="#m86688532ae" x="41.421875" y="39.092636" style="fill: #8a8a8c; stroke: #8a8a8c; stroke-width: 0.8"/>
      </g>
     </g>
     <g id="text_18">
      <!-- 4.0 -->
      <g style="fill: #8a8a8c" transform="translate(20.521875 42.716074) scale(0.1 -0.1)">
       <use xlink:href="#LiberationSans-34"/>
       <use xlink:href="#LiberationSans-2e" x="55.615234"/>
       <use xlink:href="#LiberationSans-30" x="83.398438"/>
      </g>
     </g>
    </g>
    <g id="text_19">
     <!-- Density -->
     <g style="fill: #8a8a8c" transform="translate(14.446875 178.571875) rotate(-90) scale(0.1 -0.1)">
      <defs>
       <path id="LiberationSans-44" d="M 4316 2247 
Q 4316 1697 4150 1276 
Q 3984 856 3696 573 
Q 3409 291 3017 145 
Q 2625 0 2172 0 
L 525 0 
L 525 4403 
L 1981 4403 
Q 2491 4403 2920 4276 
Q 3350 4150 3659 3886 
Q 3969 3622 4142 3215 
Q 4316 2809 4316 2247 
z
M 3716 2247 
Q 3716 2694 3587 3011 
Q 3459 3328 3228 3531 
Q 2997 3734 2675 3829 
Q 2353 3925 1969 3925 
L 1122 3925 
L 1122 478 
L 2103 478 
Q 2450 478 2745 590 
Q 3041 703 3256 925 
Q 3472 1147 3594 1478 
Q 3716 1809 3716 2247 
z
" transform="scale(0.015625)"/>
       <path id="LiberationSans-6e" d="M 2578 0 
L 2578 2144 
Q 2578 2391 2542 2556 
Q 2506 2722 2425 2823 
Q 2344 2925 2211 2967 
Q 2078 3009 1881 3009 
Q 1681 3009 1520 2939 
Q 1359 2869 1245 2736 
Q 1131 2603 1068 2408 
Q 1006 2213 1006 1959 
L 1006 0 
L 444 0 
L 444 2659 
Q 444 2766 442 2883 
Q 441 3000 437 3104 
Q 434 3209 431 3284 
Q 428 3359 425 3381 
L 956 3381 
Q 959 3366 962 3297 
Q 966 3228 970 3139 
Q 975 3050 978 2958 
Q 981 2866 981 2803 
L 991 2803 
Q 1072 2950 1169 3069 
Q 1266 3188 1394 3270 
Q 1522 3353 1687 3398 
Q 1853 3444 2072 3444 
Q 2353 3444 2556 3375 
Q 2759 3306 2890 3162 
Q 3022 3019 3083 2792 
Q 3144 2566 3144 2253 
L 3144 0 
L 2578 0 
z
" transform="scale(0.015625)"/>
       <path id="LiberationSans-69" d="M 428 4100 
L 428 4638 
L 991 4638 
L 991 4100 
L 428 4100 
z
M 428 0 
L 428 3381 
L 991 3381 
L 991 0 
L 428 0 
z
" transform="scale(0.015625)"/>
       <path id="LiberationSans-74" d="M 1731 25 
Q 1603 -9 1470 -29 
Q 1338 -50 1163 -50 
Q 488 -50 488 716 
L 488 2972 
L 97 2972 
L 97 3381 
L 509 3381 
L 675 4138 
L 1050 4138 
L 1050 3381 
L 1675 3381 
L 1675 2972 
L 1050 2972 
L 1050 838 
Q 1050 594 1129 495 
Q 1209 397 1406 397 
Q 1488 397 1564 409 
Q 1641 422 1731 441 
L 1731 25 
z
" transform="scale(0.015625)"/>
       <path id="LiberationSans-79" d="M 1888 0 
Q 1769 -306 1645 -551 
Q 1522 -797 1369 -970 
Q 1216 -1144 1028 -1236 
Q 841 -1328 597 -1328 
Q 491 -1328 400 -1322 
Q 309 -1316 209 -1294 
L 209 -872 
Q 269 -881 344 -886 
Q 419 -891 472 -891 
Q 719 -891 931 -706 
Q 1144 -522 1303 -119 
L 1356 16 
L 16 3381 
L 616 3381 
L 1328 1513 
Q 1359 1428 1407 1287 
Q 1456 1147 1504 1006 
Q 1553 866 1590 753 
Q 1628 641 1634 613 
Q 1644 647 1680 748 
Q 1716 850 1761 975 
Q 1806 1100 1853 1228 
Q 1900 1356 1931 1450 
L 2594 3381 
L 3188 3381 
L 1888 0 
z
" transform="scale(0.015625)"/>
      </defs>
      <use xlink:href="#LiberationSans-44"/>
      <use xlink:href="#LiberationSans-65" x="72.216797"/>
      <use xlink:href="#LiberationSans-6e" x="127.832031"/>
      <use xlink:href="#LiberationSans-73" x="183.447266"/>
      <use xlink:href="#LiberationSans-69" x="233.447266"/>
      <use xlink:href="#LiberationSans-74" x="255.664062"/>
      <use xlink:href="#LiberationSans-79" x="283.447266"/>
     </g>
    </g>
   </g>
   <g id="line2d_35">
    <path d="M 55.255398 316.101997 
L 63.840767 315.669093 
L 70.487505 315.123783 
L 76.3034 314.426579 
L 81.288454 313.609282 
L 85.719612 312.665883 
L 89.873823 311.554262 
L 93.751087 310.280319 
L 97.351403 308.858939 
L 100.674772 307.313833 
L 103.99814 305.51662 
L 107.044562 303.623066 
L 110.090983 301.47055 
L 113.137405 299.035923 
L 116.183826 296.296136 
L 119.230248 293.228681 
L 122.276669 289.812085 
L 125.32309 286.026457 
L 128.369512 281.854083 
L 131.415933 277.280051 
L 134.462355 272.292905 
L 137.508776 266.885306 
L 140.832145 260.503705 
L 144.155514 253.622806 
L 147.75583 245.619849 
L 151.356146 237.074158 
L 155.23341 227.312725 
L 159.664568 215.538257 
L 164.926569 200.884777 
L 173.234991 176.96062 
L 180.989518 154.875028 
L 185.420677 142.884659 
L 189.29794 133.027384 
L 192.621309 125.187741 
L 195.667731 118.590861 
L 198.437205 113.149582 
L 200.929731 108.750879 
L 203.14531 105.267348 
L 205.36089 102.208721 
L 207.299521 99.896771 
L 209.238153 97.93718 
L 210.899838 96.545582 
L 212.561522 95.42544 
L 214.223206 94.580978 
L 215.884891 94.015392 
L 217.269628 93.758678 
L 218.654365 93.697812 
L 220.039102 93.832954 
L 221.423839 94.163748 
L 223.085523 94.817699 
L 224.747208 95.749627 
L 226.408892 96.956013 
L 228.070577 98.432309 
L 230.009208 100.488351 
L 231.94784 102.893753 
L 233.886472 105.636387 
L 236.102051 109.1661 
L 238.31763 113.095503 
L 240.810157 117.962527 
L 243.579631 123.879155 
L 246.626052 130.940083 
L 249.949421 139.211551 
L 253.826685 149.470614 
L 258.811738 163.354542 
L 267.397108 188.096529 
L 274.874687 209.362771 
L 279.859741 222.891755 
L 284.290899 234.26936 
L 288.168163 243.626783 
L 291.768479 251.762446 
L 295.368795 259.332596 
L 298.692164 265.802301 
L 302.015533 271.768805 
L 305.061954 276.797927 
L 308.108376 281.413001 
L 311.154797 285.625099 
L 314.201219 289.448815 
L 317.24764 292.901611 
L 320.294061 296.003188 
L 323.340483 298.774885 
L 326.386904 301.239129 
L 329.433326 303.418934 
L 331.925852 305.007032 
L 331.925852 305.007032 
" clip-path="url(#pb78f7c94ec)" style="fill: none; stroke: #6f6f6f; stroke-width: 1.5; stroke-linecap: square"/>
   </g>
   <g id="patch_23">
    <path d="M 41.421875 316.6 
L 41.421875 7.2 
" style="fill: none; stroke: #ffffff; stroke-width: 0.8; stroke-linejoin: miter; stroke-linecap: square"/>
   </g>
   <g id="patch_24">
    <path d="M 41.421875 316.6 
L 345.759375 316.6 
" style="fill: none; stroke: #ffffff; stroke-width: 0.8; stroke-linejoin: miter; stroke-linecap: square"/>
   </g>
  </g>
 </g>
 <defs>
  <clipPath id="pb78f7c94ec">
   <rect x="41.421875" y="7.2" width="304.3375" height="309.4"/>
  </clipPath>
 </defs>
</svg>
